<svg xmlns="http://www.w3.org/2000/svg" viewBox="0 0 512 512" role="img" aria-labelledby="title desc">
  <title id="title">CryptoTrendNotify Logo</title>
  <desc id="desc">A stylised upward trend icon representing the CryptoTrendNotify progressive web app.</desc>
  <rect width="512" height="512" rx="96" fill="#0f172a" />
  <path
    d="M104 348c44-86 112-130 168-130 36 0 72 18 98 52l38-46 0.7-0.7c6.5-6.2 16.8-6 23.2 0.5l0.5 0.5 76 88c6 6.9 5.4 17.3-1.3 23.6l-0.5 0.4-87 72c-6.9 5.7-17.1 4.8-22.9-2l-0.4-0.6-34-45c-24 28-57 44-93 44-71 0-130-40-160-115Z"
    fill="url(#gradient)"
  />
  <path
    d="M142 360c28 48 74 76 126 76 52 0 98-28 126-76l-30-40c-20 34-51 52-96 52-44 0-80-19-104-58Z"
    fill="#22d3ee"
    opacity="0.45"
  />
  <defs>
    <linearGradient id="gradient" x1="120" y1="156" x2="420" y2="452" gradientUnits="userSpaceOnUse">
      <stop offset="0" stop-color="#6366f1" />
      <stop offset="1" stop-color="#22d3ee" />
    </linearGradient>
  </defs>
</svg>
